<svg xmlns="http://www.w3.org/2000/svg" viewBox="-6 -6 12 12">
	<!-- Fill -->
	<path d="M 0 0 L -1 -1 L -4 -1 L -4 -6 L -6 -4 L -6 -1 L -5 0 L -6 1 L -6 6 L -4 4 L -4 1 L -1 1 L -1 6 L 1 4 L 1 1 Z" fill="#013668" />
	<path d="M 0 0 L -1 -1 L -1 -4 L 1 -6 L 1 -4 L 1 -1 Z" fill="#a349a3" />
	<path d="M 0 0 L 1 -1 L 4 -1 L 6 1 L 6 4 L 4 6 L -1 6 L 1 4 L 4 4 L 4 1 L 1 1 Z M 1 -4 L 4 -4 L 6 -6 L 1 -6 Z" fill="#fe0002" />

	<!-- Border -->
	<path d="M -1 -1 L -4 -1 L -4 -6 L -6 -4 L -6 -1 L -5 0 L -6 1 L -6 6 L -4 4 L -4 1 L -1 1 L -1 6 L 4 6 L 6 4 L 6 1 L 4 -1 L 1 -1 L 1 -4 L 4 -4 L 6 -6 L 1 -6 L -1 -4 Z M 1 1 L 4 1 L 4 4 L 1 4 L 1 1" fill="none" stroke="#000000" stroke-width="0.05" />
</svg>