<?xml version="1.0" standalone="no"?>
<!DOCTYPE svg PUBLIC "-//W3C//DTD SVG 20010904//EN"
 "http://www.w3.org/TR/2001/REC-SVG-20010904/DTD/svg10.dtd">
<svg version="1.0" xmlns="http://www.w3.org/2000/svg"
 width="700.000000pt" height="700.000000pt" viewBox="0 0 700.000000 700.000000"
 preserveAspectRatio="xMidYMid meet">
<metadata>
Created by potrace 1.14, written by Peter Selinger 2001-2017
</metadata>
<g transform="translate(0.000000,700.000000) scale(0.100000,-0.100000)"
fill="#000000" stroke="none">
<path d="M572 6427 l-572 -572 0 -895 0 -895 282 -282 283 -283 -283 -283
-282 -282 0 -1468 c0 -1169 3 -1467 13 -1467 6 0 272 260 590 578 l577 577 0
873 0 872 860 0 860 0 0 -1450 0 -1450 1478 0 1477 0 573 573 572 572 0 895 0
895 -583 583 -582 582 -868 0 -867 0 0 860 0 860 873 0 872 0 578 578 c317
317 577 583 577 590 0 9 -302 12 -1468 12 l-1467 0 -583 -583 -582 -582 0
-868 0 -867 -860 0 -860 0 0 1450 c0 1375 -1 1450 -18 1450 -9 0 -268 -251
-590 -573z m5248 -4387 l0 -860 -860 0 -860 0 0 860 0 860 860 0 860 0 0 -860z"/>
</g>
</svg>
