<?xml version="1.0" standalone="no"?>
<!DOCTYPE svg PUBLIC "-//W3C//DTD SVG 20010904//EN"
 "http://www.w3.org/TR/2001/REC-SVG-20010904/DTD/svg10.dtd">
<svg version="1.0" xmlns="http://www.w3.org/2000/svg"
 width="700.000000pt" height="700.000000pt" viewBox="0 0 700.000000 700.000000"
 preserveAspectRatio="xMidYMid meet">
<metadata>
Created by potrace 1.14, written by Peter Selinger 2001-2017
</metadata>
<g transform="translate(0.000000,700.000000) scale(0.100000,-0.100000)"
fill="#000000" stroke="none">
<path d="M572 6427 l-572 -572 0 -895 0 -896 282 -282 282 -282 -282 -282
-282 -282 0 -1468 c0 -1018 3 -1468 10 -1468 6 0 272 261 590 580 l580 580 0
97 c0 54 0 446 0 871 l0 772 37 1 c232 3 1676 0 1680 -4 3 -3 5 -656 5 -1451
l1 -1446 1476 0 1476 0 573 573 572 572 0 896 0 895 -581 581 -581 581 -864 0
c-476 0 -867 2 -871 5 -4 5 -8 1605 -4 1702 1 13 108 15 871 15 l870 -1 580
581 c319 319 580 584 580 590 0 7 -481 10 -1468 10 l-1468 0 -581 -581 -581
-581 0 -864 c1 -476 -2 -867 -5 -870 -4 -5 -1593 -9 -1699 -5 -17 1 -18 49
-18 789 0 2292 2 2112 -18 2112 -9 0 -268 -251 -590 -573z m5216 -3526 l32 -1
-1 -860 -1 -860 -859 0 c-675 0 -859 3 -860 13 0 16 0 1644 0 1679 1 17 7 28
18 30 13 2 1528 1 1671 -1z"/>
</g>
</svg>
